<svg width="39" height="38" viewBox="0 0 39 38" fill="none" xmlns="http://www.w3.org/2000/svg">
<g clip-path="url(#clip0_1065_3736)">
<path d="M19.0223 0C8.51889 0 0 8.51432 0 19.0121C0 29.5099 8.51889 38.0242 19.0223 38.0242C29.5257 38.0242 38.0446 29.5099 38.0446 19.0121C38.0446 8.51432 29.5015 0 19.0223 0ZM33.2769 28.3488C32.1879 29.8969 30.9778 30.7193 29.5257 30.8886C25.4115 31.324 19.8694 26.2202 15.4405 22.084C11.5199 18.4558 8.42209 15.5773 5.95355 15.5773C3.485 15.5773 2.95257 16.1579 2.05712 17.2947C2.05712 17.2947 2.03292 17.3431 2.00872 17.3431C2.27493 14.5372 3.24299 11.9249 4.69507 9.67537C5.78414 8.12731 6.99421 7.3049 8.44629 7.15977C12.5605 6.72438 18.1026 11.8281 22.5315 15.9644C26.4521 19.5926 29.5499 22.471 32.0185 22.471C34.487 22.471 35.0194 21.8905 35.9149 20.7537C35.9149 20.7295 35.9633 20.7053 35.9875 20.6811C35.7213 23.5111 34.7532 26.1235 33.2769 28.373V28.3488ZM35.092 13.2552H35.0678C35.334 14.4405 35.7455 17.851 34.4386 19.52C33.9062 20.1973 33.1317 20.5118 32.0427 20.5118C30.3244 20.5118 27.0572 17.464 23.8868 14.5372C19.1433 10.1349 13.7948 5.20051 8.97872 5.20051C11.8103 3.14449 15.2711 1.93507 19.0223 1.93507C26.4279 1.93507 32.7445 6.676 35.092 13.2552ZM2.92837 24.7447C2.66215 23.5595 2.25073 20.1489 3.55761 18.5041C4.09004 17.8269 4.86448 17.5124 5.95355 17.5124C7.67184 17.5124 10.939 20.5602 14.1094 23.4869C18.8287 27.8651 24.1772 32.7995 28.9691 32.8237C26.1617 34.8555 22.7009 36.0649 18.9981 36.0649C11.5925 36.0649 5.30011 31.3482 2.92837 24.7447Z" fill="url(#paint0_linear_1065_3736)" style=""/>
</g>
<defs>
<linearGradient id="paint0_linear_1065_3736" x1="6.9128" y1="6.90909" x2="35.8435" y2="38.0155" gradientUnits="userSpaceOnUse">
<stop stop-color="#00EDC9" style="stop-color:#00EDC9;stop-color:color(display-p3 0.0000 0.9294 0.7882);stop-opacity:1;"/>
<stop offset="1" stop-color="#144EA7" style="stop-color:#144EA7;stop-color:color(display-p3 0.0784 0.3059 0.6549);stop-opacity:1;"/>
</linearGradient>
<clipPath id="clip0_1065_3736">
<rect width="38.0204" height="38" fill="white" style="fill:white;fill-opacity:1;"/>
</clipPath>
</defs>
</svg>
