<svg xmlns="http://www.w3.org/2000/svg" width="138" height="38" fill="none"><g clip-path="url(#a)"><path fill="url(#b)" d="M19.022 0C8.52 0 0 8.514 0 19.012 0 29.51 8.519 38.024 19.022 38.024c10.504 0 19.023-8.514 19.023-19.012C38.045 8.514 29.5 0 19.022 0Zm14.255 28.349c-1.09 1.548-2.3 2.37-3.751 2.54-4.114.435-9.657-4.669-14.085-8.805-3.921-3.628-7.019-6.507-9.487-6.507-2.469 0-3.001.58-3.897 1.718 0 0-.024.048-.048.048.266-2.806 1.234-5.418 2.686-7.668 1.09-1.548 2.3-2.37 3.751-2.515 4.114-.436 9.657 4.668 14.086 8.804 3.92 3.629 7.018 6.507 9.487 6.507 2.468 0 3-.58 3.896-1.717 0-.024.048-.049.072-.073a16.864 16.864 0 0 1-2.71 7.692v-.024Zm1.815-15.094h-.024c.266 1.185.678 4.596-.63 6.265-.532.677-1.306.992-2.395.992-1.719 0-4.986-3.048-8.156-5.975-4.744-4.402-10.092-9.336-14.908-9.336a17.016 17.016 0 0 1 10.043-3.266c7.406 0 13.723 4.741 16.07 11.32ZM2.928 24.745c-.266-1.186-.677-4.596.63-6.24.532-.678 1.306-.993 2.396-.993 1.718 0 4.985 3.048 8.155 5.975 4.72 4.378 10.068 9.313 14.86 9.337a16.997 16.997 0 0 1-9.97 3.24c-7.406 0-13.699-4.716-16.07-11.32Z"/></g><path fill="#fff" d="M52.762 24.146c2.891 0 3.195-3.175 3.195-5.245 0-2.069-.304-5.244-3.195-5.244s-3.176 3.175-3.176 5.244c0 2.07.285 5.245 3.176 5.245Zm0-11.916c2.32 0 4.89 1.249 4.89 6.671 0 5.423-2.57 6.672-4.89 6.672-2.302 0-4.872-1.249-4.872-6.672 0-5.422 2.57-6.67 4.872-6.67ZM65.324 16.047h1.767l-3.07 4.246 3.462 4.976h-1.892l-2.32-3.531h-.606l-2.32 3.531H58.56l3.355-4.851-3.105-4.37h1.892l1.98 2.978h.59l2.052-2.979ZM78.344 12.534h3.516v12.735h-1.695V13.961h-.571l-2.767 11.308h-2.73l-2.748-11.308h-.59v11.308h-1.695V12.534h3.516l2.766 11.308h.232l2.766-11.308ZM89.694 22.647h.553v-1.712h-2.373c-1.428 0-2.445.339-2.445 1.57 0 .802.5 1.623 1.749 1.623 1.892 0 2.338-1.124 2.516-1.48Zm-1.392-6.813c1.66 0 3.462.642 3.462 2.532v6.903h-1.517v-1.498h-.553c-.5 1.23-1.624 1.712-2.802 1.712s-2.98-.588-2.98-2.978c0-1.855 1.427-2.676 3.765-2.676h2.57v-1.124c0-1.195-1.07-1.534-2.016-1.534-1.285 0-2.231.393-2.32 1.748h-1.517c.107-2.283 1.838-3.085 3.908-3.085ZM99.243 16.047v1.338h-3.605v7.884H94.12v-9.221h1.517v.998h.57c.554-.927.786-.998 3.035-.998ZM100.587 12.534h1.517v6.992h.571l3.623-3.479h2.035l-3.784 3.479h.036l4.033 5.743h-1.963l-3.123-4.637h-1.428v4.637h-1.517V12.534ZM110.283 19.776h5.372c-.178-1.231-.928-2.605-2.695-2.605-1.534 0-2.445 1-2.677 2.605Zm6.925.767v.57h-6.96c.107 1.855 1.053 3.033 2.712 3.033 1.089 0 2.267-.589 2.517-1.802h1.553c-.34 1.98-2.142 3.14-4.07 3.14-2.587 0-4.247-1.874-4.247-4.835 0-2.943 1.66-4.816 4.247-4.816 2.499 0 4.248 1.802 4.248 4.71ZM123.025 17.385h-2.302v5.726c0 .446 0 .82 1.018.82h1.267v1.338h-2.035c-1.374 0-1.767-1.052-1.767-1.873v-6.01h-1.285v-1.338h1.285v-2.765h1.517v3.763h.589c.179-.445.393-.998 1.017-.998h.696v1.337ZM124.117 22.362h1.517c.054 1.356 1.249 1.784 2.481 1.784.946 0 2.284-.215 2.284-1.374 0-2.372-6.085-.767-6.085-4.316 0-1.855 1.82-2.622 3.444-2.622 2.07 0 3.641.642 3.783 2.89h-1.517c-.089-1.178-1.16-1.553-2.141-1.553-.91 0-2.017.25-2.017 1.178 0 1.07 1.66 1.284 3.07 1.605 1.517.339 3.016.856 3.016 2.622 0 2.212-2.052 2.907-3.926 2.907-2.071 0-3.82-.838-3.909-3.121Z" style="fill:#fff;fill-opacity:1"/><defs><linearGradient id="b" x1="6.913" x2="35.843" y1="6.909" y2="38.016" gradientUnits="userSpaceOnUse"><stop stop-color="#00EDC9" style="stop-color:#00edc9;stop-color:color(display-p3 0 .9294 .7882);stop-opacity:1"/><stop offset="1" stop-color="#144EA7" style="stop-color:#144ea7;stop-color:color(display-p3 .0784 .3059 .6549);stop-opacity:1"/></linearGradient><clipPath id="a"><path fill="#fff" d="M0 0h38.02v38H0z" style="fill:#fff;fill-opacity:1"/></clipPath></defs></svg>